<mxfile host="65bd71144e">
    <diagram id="2VWQvkif3zciTvsmy9DA" name="Page-1">
        <mxGraphModel dx="232" dy="607" grid="1" gridSize="10" guides="1" tooltips="1" connect="1" arrows="1" fold="1" page="1" pageScale="1" pageWidth="850" pageHeight="1100" math="0" shadow="0">
            <root>
                <mxCell id="0"/>
                <mxCell id="1" parent="0"/>
                <mxCell id="3" value="" style="rounded=0;whiteSpace=wrap;html=1;" parent="1" vertex="1">
                    <mxGeometry x="280" y="40" width="760" height="440" as="geometry"/>
                </mxCell>
                <mxCell id="4" value="" style="rounded=0;whiteSpace=wrap;html=1;" parent="1" vertex="1">
                    <mxGeometry x="280" y="40" width="760" height="30" as="geometry"/>
                </mxCell>
                <mxCell id="5" value="" style="rounded=0;whiteSpace=wrap;html=1;" parent="1" vertex="1">
                    <mxGeometry x="280" y="70" width="100" height="410" as="geometry"/>
                </mxCell>
                <mxCell id="6" value="User ou login / sigunup" style="rounded=0;whiteSpace=wrap;html=1;" parent="1" vertex="1">
                    <mxGeometry x="940" y="45" width="90" height="20" as="geometry"/>
                </mxCell>
                <mxCell id="7" value="Logo" style="rounded=0;whiteSpace=wrap;html=1;" parent="1" vertex="1">
                    <mxGeometry x="285" y="45" width="90" height="20" as="geometry"/>
                </mxCell>
                <mxCell id="8" value="Início" style="rounded=0;whiteSpace=wrap;html=1;" parent="1" vertex="1">
                    <mxGeometry x="285" y="90" width="90" height="20" as="geometry"/>
                </mxCell>
                <mxCell id="9" value="Postagens" style="rounded=0;whiteSpace=wrap;html=1;fillColor=#0050ef;fontColor=#ffffff;strokeColor=#001DBC;" parent="1" vertex="1">
                    <mxGeometry x="285" y="120" width="90" height="20" as="geometry"/>
                </mxCell>
                <mxCell id="10" value="Usuários" style="rounded=0;whiteSpace=wrap;html=1;" parent="1" vertex="1">
                    <mxGeometry x="285" y="150" width="90" height="20" as="geometry"/>
                </mxCell>
                <mxCell id="11" value="Gerenciar" style="rounded=0;whiteSpace=wrap;html=1;" parent="1" vertex="1">
                    <mxGeometry x="285" y="180" width="90" height="20" as="geometry"/>
                </mxCell>
                <mxCell id="12" value="Promover" style="rounded=0;whiteSpace=wrap;html=1;" parent="1" vertex="1">
                    <mxGeometry x="285" y="210" width="90" height="20" as="geometry"/>
                </mxCell>
                <mxCell id="13" value="" style="rounded=0;whiteSpace=wrap;html=1;" parent="1" vertex="1">
                    <mxGeometry x="280" y="520" width="290" height="540" as="geometry"/>
                </mxCell>
                <mxCell id="14" value="User ou login / sigunup" style="rounded=0;whiteSpace=wrap;html=1;" parent="1" vertex="1">
                    <mxGeometry x="470" y="525" width="90" height="20" as="geometry"/>
                </mxCell>
                <mxCell id="15" value="Logo" style="rounded=0;whiteSpace=wrap;html=1;" parent="1" vertex="1">
                    <mxGeometry x="285" y="525" width="90" height="20" as="geometry"/>
                </mxCell>
                <mxCell id="16" value="" style="rounded=0;whiteSpace=wrap;html=1;" parent="1" vertex="1">
                    <mxGeometry x="280" y="550" width="290" height="30" as="geometry"/>
                </mxCell>
                <mxCell id="17" value="Link selecionado" style="rounded=0;whiteSpace=wrap;html=1;" parent="1" vertex="1">
                    <mxGeometry x="285" y="555" width="80" height="20" as="geometry"/>
                </mxCell>
                <mxCell id="18" value="menu" style="rounded=0;whiteSpace=wrap;html=1;" parent="1" vertex="1">
                    <mxGeometry x="490" y="555" width="70" height="20" as="geometry"/>
                </mxCell>
                <mxCell id="19" value="" style="rounded=0;whiteSpace=wrap;html=1;fontSize=34;" parent="1" vertex="1">
                    <mxGeometry x="400" y="195" width="90" height="120" as="geometry"/>
                </mxCell>
                <mxCell id="20" value="Título" style="rounded=0;whiteSpace=wrap;html=1;fontSize=14;" parent="1" vertex="1">
                    <mxGeometry x="400" y="170" width="90" height="20" as="geometry"/>
                </mxCell>
                <mxCell id="22" value="Postagens" style="rounded=0;whiteSpace=wrap;html=1;" parent="1" vertex="1">
                    <mxGeometry x="390" y="110" width="140" height="30" as="geometry"/>
                </mxCell>
                <mxCell id="24" value="" style="rounded=0;whiteSpace=wrap;html=1;fontSize=34;" parent="1" vertex="1">
                    <mxGeometry x="300" y="685" width="90" height="120" as="geometry"/>
                </mxCell>
                <mxCell id="25" value="Título" style="rounded=0;whiteSpace=wrap;html=1;fontSize=14;" parent="1" vertex="1">
                    <mxGeometry x="300" y="660" width="90" height="20" as="geometry"/>
                </mxCell>
                <mxCell id="26" value="Postagens" style="rounded=0;whiteSpace=wrap;html=1;" parent="1" vertex="1">
                    <mxGeometry x="290" y="600" width="140" height="30" as="geometry"/>
                </mxCell>
            </root>
        </mxGraphModel>
    </diagram>
</mxfile>